<svg xmlns="http://www.w3.org/2000/svg" width="64" height="64" viewBox="0 0 16.933 16.933"><g transform="translate(0 -260.975) scale(.26458)"><circle cx="32" cy="1017.362" r="8.5" fill="none" stroke="#FFFFFF" stroke-linecap="round" stroke-linejoin="round" stroke-width="2" paint-order="fill markers stroke"/><path fill="none" stroke="#FFFFFF" stroke-linejoin="round" stroke-width="2" d="m 29.999999,1030.3622 v 4 h -1.5 v 9.5 c 0,1.933 1.567003,3.5 3.5,3.5 1.932997,0 3.5,-1.567 3.5,-3.5 v -9.5 h -1.5 v -4" paint-order="fill markers stroke"/><circle cx="32" cy="1017.362" r="13" fill="none" stroke="#FFFFFF" stroke-linecap="round" stroke-linejoin="round" stroke-width="2" paint-order="fill markers stroke"/><path fill="none" stroke="#FFFFFF" stroke-linecap="round" stroke-linejoin="round" stroke-width="2" d="M15 1017.3622H14.028111M17.280105 1008.8647l-.841681-.4859M17.280105 1025.8597l-.841681.4859"/><path fill="none" stroke="#FFFFFF" stroke-linecap="round" stroke-linejoin="round" stroke-width="2" d="M15 1017.3622H14.028111M17.280105 1008.8647l-.841681-.4859M17.280105 1025.8597l-.841681.4859" transform="matrix(-1 0 0 1 64 0)"/><path fill="none" stroke="#FFFFFF" stroke-linejoin="round" stroke-width="2" d="M 10,997.3622 H 3 v -4.49996 c 0,-1.933 1.5670034,-3.5 3.5,-3.5 1.9329966,0 3.5,1.567 3.5,3.5 v 45.00006 c 0,1.933 1.567003,3.5 3.5,3.5 l 11.5,-10e-5" paint-order="fill markers stroke"/><path fill="none" stroke="#FFFFFF" stroke-linejoin="round" stroke-width="2" d="m 54,1033.3622 h 7 v 4.5 c 0,1.933 -1.567003,3.5 -3.5,3.5 -1.932997,0 -3.5,-1.567 -3.5,-3.5 v -45.00006 c 0,-1.933 -1.567003,-3.5 -3.5,-3.5 l -43.5,6e-5" paint-order="fill markers stroke"/><path fill="none" stroke="#FFFFFF" stroke-linejoin="round" stroke-width="2" d="M 57,1041.3622 H 39"/><path fill="none" stroke="#FFFFFF" stroke-width="2" d="M 25,995.3622 H 39"/></g></svg>